# xmcd
#
# Track frame offsets:
# 150
# 8932
# 21135
# 36300
# 47597
# 58537
# 79932
# 100400
# 119492
# 140652
# 152957
# 163535
# 176052
# 187105
# 198860
#
# Disc length: 2790 seconds
#
# Revision: 1
# Processed by: cddbd v1.5PL3 Copyright (c) Steve Scherf et al.
# Submitted via: inCDius 2.0b9
#
DISCID=d00ae40f
DTITLE=Hooker/Hopkins/Reed - Best of the Blues
DYEAR=1900
DGENRE=
TTITLE0=Hobo Blues/Hooker
TTITLE1=I'm In the Mood/Hooker
TTITLE2=Crawling King Snake/Hooker
TTITLE3=Boom Boom/Hooker
TTITLE4=No Shoes/Hooker
TTITLE5=Shake It baby/Hopkins
TTITLE6=You Treat Poor Lightenin' Wrong/Hopkins
TTITLE7=Leave Jike Mary Alone/Hopkins
TTITLE8=Goin' Back Home/Hopkins
TTITLE9=Shaggy Dog/Hopkins
TTITLE10=Ain't That Lovin' You Baby/Reed
TTITLE11=Honest I Do/Reed
TTITLE12=Little Rain/Reed
TTITLE13=Close Together/Reed
TTITLE14=Found Love/Reed
EXTD=
EXTT0=
EXTT1=
EXTT2=
EXTT3=
EXTT4=
EXTT5=
EXTT6=
EXTT7=
EXTT8=
EXTT9=
EXTT10=
EXTT11=
EXTT12=
EXTT13=
EXTT14=
PLAYORDER=
